<mxfile host="65bd71144e">
    <diagram name="Page-1" id="9xO9hjExc3DNocHkwDLX">
        <mxGraphModel dx="2390" dy="2677" grid="0" gridSize="10" guides="1" tooltips="1" connect="1" arrows="1" fold="1" page="0" pageScale="1" pageWidth="827" pageHeight="1169" math="0" shadow="0">
            <root>
                <mxCell id="0"/>
                <mxCell id="1" parent="0"/>
                <mxCell id="m5uxY94anPBz-oBo_lGc-28" style="edgeStyle=orthogonalEdgeStyle;rounded=0;orthogonalLoop=1;jettySize=auto;html=1;entryX=0;entryY=0.5;entryDx=0;entryDy=0;" parent="1" source="m5uxY94anPBz-oBo_lGc-2" target="m5uxY94anPBz-oBo_lGc-4" edge="1">
                    <mxGeometry relative="1" as="geometry"/>
                </mxCell>
                <mxCell id="m5uxY94anPBz-oBo_lGc-53" style="edgeStyle=orthogonalEdgeStyle;rounded=0;orthogonalLoop=1;jettySize=auto;html=1;entryX=0;entryY=0.5;entryDx=0;entryDy=0;" parent="1" source="m5uxY94anPBz-oBo_lGc-2" target="m5uxY94anPBz-oBo_lGc-3" edge="1">
                    <mxGeometry relative="1" as="geometry"/>
                </mxCell>
                <mxCell id="m5uxY94anPBz-oBo_lGc-65" style="edgeStyle=orthogonalEdgeStyle;rounded=0;orthogonalLoop=1;jettySize=auto;html=1;entryX=0;entryY=0.5;entryDx=0;entryDy=0;" parent="1" source="m5uxY94anPBz-oBo_lGc-2" target="m5uxY94anPBz-oBo_lGc-54" edge="1">
                    <mxGeometry relative="1" as="geometry"/>
                </mxCell>
                <mxCell id="m5uxY94anPBz-oBo_lGc-67" style="edgeStyle=orthogonalEdgeStyle;rounded=0;orthogonalLoop=1;jettySize=auto;html=1;entryX=0;entryY=0.5;entryDx=0;entryDy=0;" parent="1" source="m5uxY94anPBz-oBo_lGc-2" target="m5uxY94anPBz-oBo_lGc-66" edge="1">
                    <mxGeometry relative="1" as="geometry"/>
                </mxCell>
                <mxCell id="m5uxY94anPBz-oBo_lGc-70" style="edgeStyle=orthogonalEdgeStyle;rounded=0;orthogonalLoop=1;jettySize=auto;html=1;entryX=0;entryY=0.5;entryDx=0;entryDy=0;" parent="1" source="m5uxY94anPBz-oBo_lGc-2" target="m5uxY94anPBz-oBo_lGc-69" edge="1">
                    <mxGeometry relative="1" as="geometry"/>
                </mxCell>
                <mxCell id="8" style="edgeStyle=none;html=1;entryX=0;entryY=0.25;entryDx=0;entryDy=0;" edge="1" parent="1" source="m5uxY94anPBz-oBo_lGc-2" target="2">
                    <mxGeometry relative="1" as="geometry">
                        <Array as="points">
                            <mxPoint x="281" y="299"/>
                            <mxPoint x="281" y="1329"/>
                        </Array>
                    </mxGeometry>
                </mxCell>
                <mxCell id="m5uxY94anPBz-oBo_lGc-2" value="Java Full Stack Developer" style="rounded=1;whiteSpace=wrap;html=1;" parent="1" vertex="1">
                    <mxGeometry x="-27" y="269" width="182" height="60" as="geometry"/>
                </mxCell>
                <mxCell id="m5uxY94anPBz-oBo_lGc-43" style="edgeStyle=orthogonalEdgeStyle;rounded=0;orthogonalLoop=1;jettySize=auto;html=1;entryX=0;entryY=0.75;entryDx=0;entryDy=0;" parent="1" source="m5uxY94anPBz-oBo_lGc-3" target="m5uxY94anPBz-oBo_lGc-29" edge="1">
                    <mxGeometry relative="1" as="geometry"/>
                </mxCell>
                <mxCell id="m5uxY94anPBz-oBo_lGc-3" value="Cloud" style="rounded=1;whiteSpace=wrap;html=1;" parent="1" vertex="1">
                    <mxGeometry x="668" y="270" width="120" height="60" as="geometry"/>
                </mxCell>
                <mxCell id="m5uxY94anPBz-oBo_lGc-18" style="edgeStyle=orthogonalEdgeStyle;rounded=0;orthogonalLoop=1;jettySize=auto;html=1;entryX=0;entryY=0.5;entryDx=0;entryDy=0;" parent="1" source="m5uxY94anPBz-oBo_lGc-4" target="m5uxY94anPBz-oBo_lGc-5" edge="1">
                    <mxGeometry relative="1" as="geometry"/>
                </mxCell>
                <mxCell id="m5uxY94anPBz-oBo_lGc-19" style="edgeStyle=orthogonalEdgeStyle;rounded=0;orthogonalLoop=1;jettySize=auto;html=1;entryX=0;entryY=0.5;entryDx=0;entryDy=0;" parent="1" source="m5uxY94anPBz-oBo_lGc-4" target="m5uxY94anPBz-oBo_lGc-6" edge="1">
                    <mxGeometry relative="1" as="geometry"/>
                </mxCell>
                <mxCell id="m5uxY94anPBz-oBo_lGc-20" style="edgeStyle=orthogonalEdgeStyle;rounded=0;orthogonalLoop=1;jettySize=auto;html=1;entryX=0;entryY=0.5;entryDx=0;entryDy=0;" parent="1" source="m5uxY94anPBz-oBo_lGc-4" target="m5uxY94anPBz-oBo_lGc-7" edge="1">
                    <mxGeometry relative="1" as="geometry"/>
                </mxCell>
                <mxCell id="m5uxY94anPBz-oBo_lGc-21" style="edgeStyle=orthogonalEdgeStyle;rounded=0;orthogonalLoop=1;jettySize=auto;html=1;entryX=0;entryY=0.5;entryDx=0;entryDy=0;" parent="1" source="m5uxY94anPBz-oBo_lGc-4" target="m5uxY94anPBz-oBo_lGc-8" edge="1">
                    <mxGeometry relative="1" as="geometry"/>
                </mxCell>
                <mxCell id="m5uxY94anPBz-oBo_lGc-22" style="edgeStyle=orthogonalEdgeStyle;rounded=0;orthogonalLoop=1;jettySize=auto;html=1;entryX=0;entryY=0.5;entryDx=0;entryDy=0;" parent="1" source="m5uxY94anPBz-oBo_lGc-4" target="m5uxY94anPBz-oBo_lGc-9" edge="1">
                    <mxGeometry relative="1" as="geometry"/>
                </mxCell>
                <mxCell id="m5uxY94anPBz-oBo_lGc-24" style="edgeStyle=orthogonalEdgeStyle;rounded=0;orthogonalLoop=1;jettySize=auto;html=1;entryX=0;entryY=0.5;entryDx=0;entryDy=0;" parent="1" source="m5uxY94anPBz-oBo_lGc-4" target="m5uxY94anPBz-oBo_lGc-11" edge="1">
                    <mxGeometry relative="1" as="geometry"/>
                </mxCell>
                <mxCell id="m5uxY94anPBz-oBo_lGc-25" style="edgeStyle=orthogonalEdgeStyle;rounded=0;orthogonalLoop=1;jettySize=auto;html=1;entryX=0;entryY=0.5;entryDx=0;entryDy=0;" parent="1" source="m5uxY94anPBz-oBo_lGc-4" target="m5uxY94anPBz-oBo_lGc-12" edge="1">
                    <mxGeometry relative="1" as="geometry"/>
                </mxCell>
                <mxCell id="m5uxY94anPBz-oBo_lGc-26" style="edgeStyle=orthogonalEdgeStyle;rounded=0;orthogonalLoop=1;jettySize=auto;html=1;entryX=0;entryY=0.5;entryDx=0;entryDy=0;" parent="1" source="m5uxY94anPBz-oBo_lGc-4" target="m5uxY94anPBz-oBo_lGc-13" edge="1">
                    <mxGeometry relative="1" as="geometry"/>
                </mxCell>
                <mxCell id="m5uxY94anPBz-oBo_lGc-4" value="Back End" style="rounded=1;whiteSpace=wrap;html=1;" parent="1" vertex="1">
                    <mxGeometry x="417" y="-255" width="120" height="60" as="geometry"/>
                </mxCell>
                <mxCell id="m5uxY94anPBz-oBo_lGc-5" value="Core Java" style="rounded=1;whiteSpace=wrap;html=1;" parent="1" vertex="1">
                    <mxGeometry x="879" y="-623" width="120" height="60" as="geometry"/>
                </mxCell>
                <mxCell id="m5uxY94anPBz-oBo_lGc-6" value="DSA" style="rounded=1;whiteSpace=wrap;html=1;" parent="1" vertex="1">
                    <mxGeometry x="879" y="-536" width="120" height="60" as="geometry"/>
                </mxCell>
                <mxCell id="m5uxY94anPBz-oBo_lGc-7" value="System Design" style="rounded=1;whiteSpace=wrap;html=1;" parent="1" vertex="1">
                    <mxGeometry x="882" y="-455" width="120" height="60" as="geometry"/>
                </mxCell>
                <mxCell id="m5uxY94anPBz-oBo_lGc-8" value="Spring Ecosystem" style="rounded=1;whiteSpace=wrap;html=1;" parent="1" vertex="1">
                    <mxGeometry x="884" y="-375" width="120" height="60" as="geometry"/>
                </mxCell>
                <mxCell id="m5uxY94anPBz-oBo_lGc-9" value="Databases" style="rounded=1;whiteSpace=wrap;html=1;" parent="1" vertex="1">
                    <mxGeometry x="887.5" y="-297" width="120" height="60" as="geometry"/>
                </mxCell>
                <mxCell id="m5uxY94anPBz-oBo_lGc-11" value="Messaging &amp;amp; Event Systems" style="rounded=1;whiteSpace=wrap;html=1;" parent="1" vertex="1">
                    <mxGeometry x="887.5" y="-136" width="217" height="60" as="geometry"/>
                </mxCell>
                <mxCell id="m5uxY94anPBz-oBo_lGc-12" value="Testing &amp;amp; Code Quality" style="rounded=1;whiteSpace=wrap;html=1;" parent="1" vertex="1">
                    <mxGeometry x="887.5" y="-57" width="247" height="60" as="geometry"/>
                </mxCell>
                <mxCell id="m5uxY94anPBz-oBo_lGc-13" value="Security" style="rounded=1;whiteSpace=wrap;html=1;" parent="1" vertex="1">
                    <mxGeometry x="887.5" y="26" width="120" height="60" as="geometry"/>
                </mxCell>
                <mxCell id="m5uxY94anPBz-oBo_lGc-44" style="edgeStyle=orthogonalEdgeStyle;rounded=0;orthogonalLoop=1;jettySize=auto;html=1;entryX=0;entryY=0.75;entryDx=0;entryDy=0;" parent="1" source="m5uxY94anPBz-oBo_lGc-29" target="m5uxY94anPBz-oBo_lGc-41" edge="1">
                    <mxGeometry relative="1" as="geometry"/>
                </mxCell>
                <mxCell id="m5uxY94anPBz-oBo_lGc-49" style="edgeStyle=orthogonalEdgeStyle;rounded=0;orthogonalLoop=1;jettySize=auto;html=1;entryX=0.5;entryY=1;entryDx=0;entryDy=0;" parent="1" source="m5uxY94anPBz-oBo_lGc-29" target="m5uxY94anPBz-oBo_lGc-36" edge="1">
                    <mxGeometry relative="1" as="geometry"/>
                </mxCell>
                <mxCell id="m5uxY94anPBz-oBo_lGc-29" value="&amp;nbsp;AWS&lt;br&gt;(For FSD)" style="rounded=1;whiteSpace=wrap;html=1;" parent="1" vertex="1">
                    <mxGeometry x="937" y="270" width="120" height="60" as="geometry"/>
                </mxCell>
                <mxCell id="m5uxY94anPBz-oBo_lGc-30" value="3.&amp;nbsp;AWS Certified Solutions Architect – Associate" style="rounded=1;whiteSpace=wrap;html=1;" parent="1" vertex="1">
                    <mxGeometry x="1515" y="100" width="335" height="60" as="geometry"/>
                </mxCell>
                <mxCell id="m5uxY94anPBz-oBo_lGc-31" value="4.&amp;nbsp;Developer – Associate" style="rounded=1;whiteSpace=wrap;html=1;" parent="1" vertex="1">
                    <mxGeometry x="1517.5" y="184" width="173" height="60" as="geometry"/>
                </mxCell>
                <mxCell id="m5uxY94anPBz-oBo_lGc-34" value="2. AWS Certified DevOps Engineer – Professional" style="rounded=1;whiteSpace=wrap;html=1;" parent="1" vertex="1">
                    <mxGeometry x="1513" y="11" width="354" height="60" as="geometry"/>
                </mxCell>
                <mxCell id="m5uxY94anPBz-oBo_lGc-35" value="&amp;nbsp;1. AWS Certified Solutions Architect – Professional" style="rounded=1;whiteSpace=wrap;html=1;" parent="1" vertex="1">
                    <mxGeometry x="1513" y="-65" width="416" height="60" as="geometry"/>
                </mxCell>
                <mxCell id="m5uxY94anPBz-oBo_lGc-50" style="edgeStyle=orthogonalEdgeStyle;rounded=0;orthogonalLoop=1;jettySize=auto;html=1;entryX=0;entryY=0.5;entryDx=0;entryDy=0;" parent="1" source="m5uxY94anPBz-oBo_lGc-36" target="m5uxY94anPBz-oBo_lGc-37" edge="1">
                    <mxGeometry relative="1" as="geometry"/>
                </mxCell>
                <mxCell id="m5uxY94anPBz-oBo_lGc-51" style="edgeStyle=orthogonalEdgeStyle;rounded=0;orthogonalLoop=1;jettySize=auto;html=1;entryX=0;entryY=0.5;entryDx=0;entryDy=0;" parent="1" source="m5uxY94anPBz-oBo_lGc-36" target="m5uxY94anPBz-oBo_lGc-38" edge="1">
                    <mxGeometry relative="1" as="geometry"/>
                </mxCell>
                <mxCell id="m5uxY94anPBz-oBo_lGc-52" style="edgeStyle=orthogonalEdgeStyle;rounded=0;orthogonalLoop=1;jettySize=auto;html=1;entryX=0;entryY=0.5;entryDx=0;entryDy=0;" parent="1" source="m5uxY94anPBz-oBo_lGc-36" target="m5uxY94anPBz-oBo_lGc-39" edge="1">
                    <mxGeometry relative="1" as="geometry"/>
                </mxCell>
                <mxCell id="m5uxY94anPBz-oBo_lGc-36" value="Top Niche" style="rounded=1;whiteSpace=wrap;html=1;direction=south;" parent="1" vertex="1">
                    <mxGeometry x="1233" y="405" width="119" height="120" as="geometry"/>
                </mxCell>
                <mxCell id="m5uxY94anPBz-oBo_lGc-37" value="AWS Certified Advanced Networking – Specialty" style="rounded=1;whiteSpace=wrap;html=1;" parent="1" vertex="1">
                    <mxGeometry x="1509" y="369" width="346" height="60" as="geometry"/>
                </mxCell>
                <mxCell id="m5uxY94anPBz-oBo_lGc-38" value="&lt;strong data-end=&quot;720&quot; data-start=&quot;682&quot;&gt;AWS Certified Security – Specialty&lt;/strong&gt;" style="rounded=1;whiteSpace=wrap;html=1;" parent="1" vertex="1">
                    <mxGeometry x="1513" y="464" width="303" height="60" as="geometry"/>
                </mxCell>
                <mxCell id="m5uxY94anPBz-oBo_lGc-39" value="AWS Certified Machine Learning – Specialty" style="rounded=1;whiteSpace=wrap;html=1;" parent="1" vertex="1">
                    <mxGeometry x="1509" y="553" width="322" height="60" as="geometry"/>
                </mxCell>
                <mxCell id="m5uxY94anPBz-oBo_lGc-45" style="edgeStyle=orthogonalEdgeStyle;rounded=0;orthogonalLoop=1;jettySize=auto;html=1;entryX=0;entryY=0.5;entryDx=0;entryDy=0;" parent="1" source="m5uxY94anPBz-oBo_lGc-41" target="m5uxY94anPBz-oBo_lGc-35" edge="1">
                    <mxGeometry relative="1" as="geometry"/>
                </mxCell>
                <mxCell id="m5uxY94anPBz-oBo_lGc-46" style="edgeStyle=orthogonalEdgeStyle;rounded=0;orthogonalLoop=1;jettySize=auto;html=1;entryX=0;entryY=0.5;entryDx=0;entryDy=0;" parent="1" source="m5uxY94anPBz-oBo_lGc-41" target="m5uxY94anPBz-oBo_lGc-34" edge="1">
                    <mxGeometry relative="1" as="geometry"/>
                </mxCell>
                <mxCell id="m5uxY94anPBz-oBo_lGc-47" style="edgeStyle=orthogonalEdgeStyle;rounded=0;orthogonalLoop=1;jettySize=auto;html=1;" parent="1" source="m5uxY94anPBz-oBo_lGc-41" target="m5uxY94anPBz-oBo_lGc-30" edge="1">
                    <mxGeometry relative="1" as="geometry"/>
                </mxCell>
                <mxCell id="m5uxY94anPBz-oBo_lGc-48" style="edgeStyle=orthogonalEdgeStyle;rounded=0;orthogonalLoop=1;jettySize=auto;html=1;entryX=0;entryY=0.5;entryDx=0;entryDy=0;" parent="1" source="m5uxY94anPBz-oBo_lGc-41" target="m5uxY94anPBz-oBo_lGc-31" edge="1">
                    <mxGeometry relative="1" as="geometry"/>
                </mxCell>
                <mxCell id="m5uxY94anPBz-oBo_lGc-41" value="High Demand" style="rounded=1;whiteSpace=wrap;html=1;" parent="1" vertex="1">
                    <mxGeometry x="1199" y="78" width="120" height="60" as="geometry"/>
                </mxCell>
                <mxCell id="m5uxY94anPBz-oBo_lGc-60" style="edgeStyle=orthogonalEdgeStyle;rounded=0;orthogonalLoop=1;jettySize=auto;html=1;entryX=0;entryY=0.5;entryDx=0;entryDy=0;" parent="1" source="m5uxY94anPBz-oBo_lGc-54" target="m5uxY94anPBz-oBo_lGc-55" edge="1">
                    <mxGeometry relative="1" as="geometry"/>
                </mxCell>
                <mxCell id="m5uxY94anPBz-oBo_lGc-61" style="edgeStyle=orthogonalEdgeStyle;rounded=0;orthogonalLoop=1;jettySize=auto;html=1;entryX=0;entryY=0.5;entryDx=0;entryDy=0;" parent="1" source="m5uxY94anPBz-oBo_lGc-54" target="m5uxY94anPBz-oBo_lGc-56" edge="1">
                    <mxGeometry relative="1" as="geometry"/>
                </mxCell>
                <mxCell id="m5uxY94anPBz-oBo_lGc-62" style="edgeStyle=orthogonalEdgeStyle;rounded=0;orthogonalLoop=1;jettySize=auto;html=1;entryX=0;entryY=0.5;entryDx=0;entryDy=0;" parent="1" source="m5uxY94anPBz-oBo_lGc-54" target="m5uxY94anPBz-oBo_lGc-57" edge="1">
                    <mxGeometry relative="1" as="geometry"/>
                </mxCell>
                <mxCell id="m5uxY94anPBz-oBo_lGc-63" style="edgeStyle=orthogonalEdgeStyle;rounded=0;orthogonalLoop=1;jettySize=auto;html=1;entryX=0;entryY=0.5;entryDx=0;entryDy=0;" parent="1" source="m5uxY94anPBz-oBo_lGc-54" target="m5uxY94anPBz-oBo_lGc-58" edge="1">
                    <mxGeometry relative="1" as="geometry"/>
                </mxCell>
                <mxCell id="m5uxY94anPBz-oBo_lGc-64" style="edgeStyle=orthogonalEdgeStyle;rounded=0;orthogonalLoop=1;jettySize=auto;html=1;entryX=0;entryY=0.5;entryDx=0;entryDy=0;" parent="1" source="m5uxY94anPBz-oBo_lGc-54" target="m5uxY94anPBz-oBo_lGc-59" edge="1">
                    <mxGeometry relative="1" as="geometry"/>
                </mxCell>
                <mxCell id="m5uxY94anPBz-oBo_lGc-54" value="Front End" style="rounded=1;whiteSpace=wrap;html=1;" parent="1" vertex="1">
                    <mxGeometry x="417" y="581" width="120" height="60" as="geometry"/>
                </mxCell>
                <mxCell id="m5uxY94anPBz-oBo_lGc-55" value="React" style="rounded=1;whiteSpace=wrap;html=1;" parent="1" vertex="1">
                    <mxGeometry x="659" y="441" width="120" height="60" as="geometry"/>
                </mxCell>
                <mxCell id="m5uxY94anPBz-oBo_lGc-56" value="Angular" style="rounded=1;whiteSpace=wrap;html=1;" parent="1" vertex="1">
                    <mxGeometry x="659" y="541" width="120" height="60" as="geometry"/>
                </mxCell>
                <mxCell id="m5uxY94anPBz-oBo_lGc-57" value="CSS" style="rounded=1;whiteSpace=wrap;html=1;" parent="1" vertex="1">
                    <mxGeometry x="659" y="654" width="120" height="60" as="geometry"/>
                </mxCell>
                <mxCell id="m5uxY94anPBz-oBo_lGc-58" value="HTML" style="rounded=1;whiteSpace=wrap;html=1;" parent="1" vertex="1">
                    <mxGeometry x="659" y="760" width="120" height="60" as="geometry"/>
                </mxCell>
                <mxCell id="m5uxY94anPBz-oBo_lGc-59" value="JavaScript and TypeScript" style="rounded=1;whiteSpace=wrap;html=1;" parent="1" vertex="1">
                    <mxGeometry x="659" y="863" width="220" height="60" as="geometry"/>
                </mxCell>
                <mxCell id="m5uxY94anPBz-oBo_lGc-66" value="DevOps, CI/CD &amp;amp; Deployment" style="rounded=1;whiteSpace=wrap;html=1;" parent="1" vertex="1">
                    <mxGeometry x="428" y="1022" width="271" height="60" as="geometry"/>
                </mxCell>
                <mxCell id="m5uxY94anPBz-oBo_lGc-69" value="Soft Skills &amp;amp; Leadership" style="rounded=1;whiteSpace=wrap;html=1;" parent="1" vertex="1">
                    <mxGeometry x="417" y="1192" width="312" height="60" as="geometry"/>
                </mxCell>
                <mxCell id="4" value="" style="edgeStyle=none;html=1;" edge="1" parent="1" source="2" target="3">
                    <mxGeometry relative="1" as="geometry"/>
                </mxCell>
                <mxCell id="5" value="" style="edgeStyle=none;html=1;" edge="1" parent="1" source="2" target="3">
                    <mxGeometry relative="1" as="geometry"/>
                </mxCell>
                <mxCell id="7" style="edgeStyle=none;html=1;entryX=0;entryY=0.5;entryDx=0;entryDy=0;" edge="1" parent="1" source="2" target="6">
                    <mxGeometry relative="1" as="geometry">
                        <Array as="points">
                            <mxPoint x="488" y="1459"/>
                        </Array>
                    </mxGeometry>
                </mxCell>
                <mxCell id="2" value="Core CS" style="rounded=1;whiteSpace=wrap;html=1;" vertex="1" parent="1">
                    <mxGeometry x="425" y="1314" width="120" height="60" as="geometry"/>
                </mxCell>
                <mxCell id="3" value="OS" style="whiteSpace=wrap;html=1;rounded=1;" vertex="1" parent="1">
                    <mxGeometry x="653" y="1311" width="120" height="60" as="geometry"/>
                </mxCell>
                <mxCell id="6" value="Computer Networks" style="rounded=1;whiteSpace=wrap;html=1;" vertex="1" parent="1">
                    <mxGeometry x="653" y="1425" width="120" height="60" as="geometry"/>
                </mxCell>
            </root>
        </mxGraphModel>
    </diagram>
</mxfile>